<svg xmlns="http://www.w3.org/2000/svg" viewBox="0 0 21 24" width="21" height="24">
  <g fill="none">
    <path fill="black" d="M18.8 21.285c0 .504.604.88 1.167.76h.002c.113-.23.212-.482.301-.76.015-.045-.504-.445-.977-.808-.148.167-.556.5-.493.808Z"></path>
    <path fill="black" d="M3.43 15.593c.588.708 1.128 1.462 1.783 2.101.192.223.322.513.462.766.26.469.518.938.79 1.4.628 1.067 1.329 2.228 2.338 2.997.528.402 1.11.49 1.757.58.73.103 1.463.175 2.197.247 1.078.107 2.152.27 3.234.31 1.515.059 3.062-.338 3.852-1.714.044-.077.086-.154.124-.234a.96.96 0 0 1-.913-.946c0-.237.09-.455.239-.621-.35-.265-.677-.51-.747-.576-.377-.344-.896-.787-1.092-1.27-.235-.572-.092-1.399-.177-2.023-.097-.698-.272-1.39-.588-2.027-.93-1.87-2.908-3.014-4.833-3.725-.28.945-1.398 4.327-2.935 4.327 3.144-4.64.49-11.636-5.41-15.181-.24-.145-2.578 4.138-2.813 4.7-1.714 4.096-.054 7.601 2.623 10.76l.11.13Z"></path>
    <path fill="black" d="M11.555 9.51c2.96-3.124 6.823-5.796 7.81-8.733 2.805 4.512 1.913 8.713-2.001 12.658-2.084-2.43-3.438-3.13-5.81-3.926Z"></path>
  </g>
</svg>
